<svg width="584" height="281" viewBox="0 0 584 281" fill="none" xmlns="http://www.w3.org/2000/svg">
<path d="M18.9384 24.375V23.175H16.4664V22.287C16.6744 21.9563 16.869 21.607 17.0504 21.239C17.2317 20.871 17.3997 20.4817 17.5544 20.071C17.7144 19.6603 17.8477 19.2337 17.9544 18.791H19.0984C19.0397 19.047 18.957 19.3163 18.8504 19.599C18.749 19.8817 18.6317 20.1617 18.4984 20.439C18.365 20.7163 18.229 20.9777 18.0904 21.223C17.957 21.463 17.829 21.6763 17.7064 21.863C17.5837 22.0497 17.4797 22.191 17.3944 22.287H18.9384V20.959C18.9917 20.8577 19.045 20.7483 19.0984 20.631C19.157 20.5083 19.213 20.3857 19.2664 20.263C19.3197 20.135 19.3677 20.0097 19.4104 19.887C19.4584 19.7643 19.4957 19.6497 19.5224 19.543H20.0344V22.287H20.7384V23.175H20.0344V24.375H18.9384ZM23.3998 24.471C22.9838 24.471 22.6211 24.399 22.3118 24.255C22.0078 24.1057 21.7731 23.895 21.6078 23.623C21.4425 23.351 21.3598 23.0283 21.3598 22.655H22.4558C22.4558 22.8417 22.4905 23.0097 22.5598 23.159C22.6345 23.303 22.7411 23.415 22.8798 23.495C23.0185 23.5697 23.1811 23.607 23.3678 23.607C23.5491 23.607 23.7038 23.567 23.8318 23.487C23.9651 23.407 24.0691 23.2923 24.1438 23.143C24.2185 22.9883 24.2558 22.799 24.2558 22.575C24.2558 22.367 24.2185 22.1937 24.1438 22.055C24.0745 21.911 23.9731 21.8043 23.8398 21.735C23.7118 21.6603 23.5598 21.623 23.3838 21.623C23.2451 21.623 23.1225 21.647 23.0158 21.695C22.9145 21.7377 22.8265 21.791 22.7518 21.855C22.6771 21.919 22.6131 21.9883 22.5598 22.063L21.5598 21.935L21.7838 18.887H25.0798V19.871H22.7118L22.6238 21.111C22.6825 21.0683 22.7598 21.023 22.8558 20.975C22.9518 20.927 23.0691 20.8843 23.2078 20.847C23.3518 20.8043 23.5171 20.783 23.7038 20.783C24.0238 20.783 24.3091 20.8497 24.5598 20.983C24.8158 21.1163 25.0185 21.3163 25.1678 21.583C25.3171 21.8443 25.3918 22.1777 25.3918 22.583C25.3918 22.9723 25.3091 23.3083 25.1438 23.591C24.9838 23.8737 24.7545 24.0923 24.4558 24.247C24.1625 24.3963 23.8105 24.471 23.3998 24.471Z" fill="#09101D"/>
<line x1="36.5" y1="21.375" x2="550.857" y2="21.375" stroke="#747B84" stroke-miterlimit="16" stroke-linecap="round" stroke-linejoin="round" stroke-dasharray="0.1 3"/>
<path d="M18.6383 63.221C18.1903 63.221 17.8143 63.1517 17.5103 63.013C17.2063 62.8743 16.9769 62.6823 16.8223 62.437C16.6676 62.1917 16.5903 61.909 16.5903 61.589V61.453H17.6703V61.605C17.6703 61.8397 17.7476 62.0237 17.9023 62.157C18.0623 62.2903 18.2916 62.357 18.5903 62.357C18.8783 62.357 19.1023 62.2903 19.2623 62.157C19.4223 62.0237 19.5023 61.8183 19.5023 61.541C19.5023 61.333 19.4596 61.173 19.3743 61.061C19.2889 60.949 19.1769 60.869 19.0383 60.821C18.9049 60.773 18.7583 60.749 18.5983 60.749H18.1103V59.909H18.5903C18.7396 59.909 18.8729 59.8823 18.9903 59.829C19.1129 59.7703 19.2089 59.685 19.2783 59.573C19.3529 59.461 19.3903 59.317 19.3903 59.141C19.3903 58.9757 19.3556 58.8397 19.2863 58.733C19.2223 58.621 19.1289 58.5383 19.0063 58.485C18.8889 58.4317 18.7529 58.405 18.5983 58.405C18.4436 58.405 18.3023 58.4317 18.1743 58.485C18.0516 58.5383 17.9556 58.6183 17.8863 58.725C17.8169 58.8317 17.7823 58.965 17.7823 59.125V59.245H16.7183V59.045C16.7183 58.7463 16.7956 58.485 16.9503 58.261C17.1103 58.0317 17.3343 57.8557 17.6223 57.733C17.9103 57.605 18.2436 57.541 18.6223 57.541C19.0009 57.541 19.3316 57.5997 19.6143 57.717C19.9023 57.8343 20.1236 58.0077 20.2783 58.237C20.4383 58.461 20.5183 58.7277 20.5183 59.037C20.5183 59.245 20.4783 59.429 20.3983 59.589C20.3236 59.749 20.2223 59.885 20.0943 59.997C19.9663 60.1037 19.8196 60.1943 19.6543 60.269V60.301C19.9423 60.3863 20.1769 60.5437 20.3583 60.773C20.5449 60.997 20.6383 61.2877 20.6383 61.645C20.6329 61.965 20.5476 62.2423 20.3823 62.477C20.2223 62.7117 19.9929 62.8957 19.6943 63.029C19.3956 63.157 19.0436 63.221 18.6383 63.221ZM23.3879 63.221C23.0572 63.221 22.7666 63.173 22.5159 63.077C22.2652 62.9757 22.0546 62.8157 21.8839 62.597C21.7186 62.373 21.5932 62.0797 21.5079 61.717C21.4279 61.3543 21.3879 60.909 21.3879 60.381C21.3879 59.8477 21.4279 59.4023 21.5079 59.045C21.5932 58.6823 21.7186 58.389 21.8839 58.165C22.0546 57.941 22.2652 57.781 22.5159 57.685C22.7666 57.589 23.0572 57.541 23.3879 57.541C23.7239 57.541 24.0146 57.589 24.2599 57.685C24.5052 57.781 24.7106 57.941 24.8759 58.165C25.0466 58.389 25.1719 58.6823 25.2519 59.045C25.3372 59.4023 25.3799 59.8477 25.3799 60.381C25.3799 60.909 25.3372 61.3543 25.2519 61.717C25.1719 62.0797 25.0466 62.373 24.8759 62.597C24.7106 62.8157 24.5052 62.9757 24.2599 63.077C24.0146 63.173 23.7239 63.221 23.3879 63.221ZM23.3879 62.357C23.6226 62.357 23.8012 62.2957 23.9239 62.173C24.0466 62.045 24.1319 61.853 24.1799 61.597C24.2279 61.341 24.2519 61.021 24.2519 60.637V60.141C24.2519 59.7517 24.2279 59.429 24.1799 59.173C24.1319 58.9117 24.0466 58.717 23.9239 58.589C23.8012 58.461 23.6226 58.397 23.3879 58.397C23.1532 58.397 22.9719 58.461 22.8439 58.589C22.7212 58.717 22.6359 58.909 22.5879 59.165C22.5399 59.4157 22.5159 59.7357 22.5159 60.125V60.621C22.5159 61.0103 22.5399 61.3357 22.5879 61.597C22.6359 61.853 22.7212 62.045 22.8439 62.173C22.9719 62.2957 23.1532 62.357 23.3879 62.357Z" fill="#09101D"/>
<line x1="36.5" y1="60.125" x2="550.857" y2="60.125" stroke="#747B84" stroke-miterlimit="16" stroke-linecap="round" stroke-linejoin="round" stroke-dasharray="0.1 3"/>
<path d="M17.0383 101.875V100.979H18.3503V97.739H17.0303V97.067C17.2063 97.051 17.4089 97.011 17.6383 96.947C17.8729 96.8777 18.1076 96.795 18.3423 96.699C18.5769 96.5977 18.7876 96.491 18.9743 96.379H19.4703V100.979H20.6943V101.875H17.0383ZM23.3959 101.971C22.9799 101.971 22.6172 101.899 22.3079 101.755C22.0039 101.606 21.7692 101.395 21.6039 101.123C21.4386 100.851 21.3559 100.528 21.3559 100.155H22.4519C22.4519 100.342 22.4866 100.51 22.5559 100.659C22.6306 100.803 22.7372 100.915 22.8759 100.995C23.0146 101.07 23.1772 101.107 23.3639 101.107C23.5452 101.107 23.6999 101.067 23.8279 100.987C23.9612 100.907 24.0652 100.792 24.1399 100.643C24.2146 100.488 24.2519 100.299 24.2519 100.075C24.2519 99.867 24.2146 99.6937 24.1399 99.555C24.0706 99.411 23.9692 99.3043 23.8359 99.235C23.7079 99.1603 23.5559 99.123 23.3799 99.123C23.2412 99.123 23.1186 99.147 23.0119 99.195C22.9106 99.2377 22.8226 99.291 22.7479 99.355C22.6732 99.419 22.6092 99.4883 22.5559 99.563L21.5559 99.435L21.7799 96.387H25.0759V97.371H22.7079L22.6199 98.611C22.6786 98.5683 22.7559 98.523 22.8519 98.475C22.9479 98.427 23.0652 98.3843 23.2039 98.347C23.3479 98.3043 23.5132 98.283 23.6999 98.283C24.0199 98.283 24.3052 98.3497 24.5559 98.483C24.8119 98.6163 25.0146 98.8163 25.1639 99.083C25.3132 99.3443 25.3879 99.6777 25.3879 100.083C25.3879 100.472 25.3052 100.808 25.1399 101.091C24.9799 101.374 24.7506 101.592 24.4519 101.747C24.1586 101.896 23.8066 101.971 23.3959 101.971Z" fill="#09101D"/>
<line x1="36.5" y1="98.875" x2="550.857" y2="98.875" stroke="#747B84" stroke-miterlimit="16" stroke-linecap="round" stroke-linejoin="round" stroke-dasharray="0.1 3"/>
<path d="M18.5051 181.68C18.1744 181.68 17.8838 181.632 17.6331 181.536C17.3824 181.435 17.1718 181.275 17.0011 181.056C16.8358 180.832 16.7104 180.539 16.6251 180.176C16.5451 179.813 16.5051 179.368 16.5051 178.84C16.5051 178.307 16.5451 177.861 16.6251 177.504C16.7104 177.141 16.8358 176.848 17.0011 176.624C17.1718 176.4 17.3824 176.24 17.6331 176.144C17.8838 176.048 18.1744 176 18.5051 176C18.8411 176 19.1318 176.048 19.3771 176.144C19.6224 176.24 19.8278 176.4 19.9931 176.624C20.1638 176.848 20.2891 177.141 20.3691 177.504C20.4544 177.861 20.4971 178.307 20.4971 178.84C20.4971 179.368 20.4544 179.813 20.3691 180.176C20.2891 180.539 20.1638 180.832 19.9931 181.056C19.8278 181.275 19.6224 181.435 19.3771 181.536C19.1318 181.632 18.8411 181.68 18.5051 181.68ZM18.5051 180.816C18.7398 180.816 18.9184 180.755 19.0411 180.632C19.1638 180.504 19.2491 180.312 19.2971 180.056C19.3451 179.8 19.3691 179.48 19.3691 179.096V178.6C19.3691 178.211 19.3451 177.888 19.2971 177.632C19.2491 177.371 19.1638 177.176 19.0411 177.048C18.9184 176.92 18.7398 176.856 18.5051 176.856C18.2704 176.856 18.0891 176.92 17.9611 177.048C17.8384 177.176 17.7531 177.368 17.7051 177.624C17.6571 177.875 17.6331 178.195 17.6331 178.584V179.08C17.6331 179.469 17.6571 179.795 17.7051 180.056C17.7531 180.312 17.8384 180.504 17.9611 180.632C18.0891 180.755 18.2704 180.816 18.5051 180.816Z" fill="#09101D"/>
<line x1="31.5" y1="178.584" x2="550.857" y2="178.584" stroke="#747B84" stroke-miterlimit="16" stroke-linecap="round" stroke-linejoin="round" stroke-dasharray="0.1 3"/>
<path fill-rule="evenodd" clip-rule="evenodd" d="M31.1328 119.044C31.1328 119.044 31.6962 118.985 36.4864 117.51C41.2765 116.034 52.1009 113.697 62.808 116.034C73.069 118.372 83.7761 130.058 94.0371 133.564C104.744 137.07 115.005 132.396 125.712 130.058C135.973 127.721 146.68 127.721 156.941 121.878C167.649 116.034 177.91 104.347 188.617 103.179C198.878 102.01 209.585 111.359 220.292 114.865C230.553 118.372 241.26 116.034 251.521 113.697C262.228 111.359 272.489 109.022 283.196 112.528C293.457 116.034 304.164 125.384 314.425 126.552C325.133 127.721 335.393 120.709 346.101 113.697C356.362 106.685 367.069 99.6726 377.33 96.1666C388.037 92.6605 398.744 92.6605 409.005 94.9979C419.712 97.3353 429.973 102.01 440.68 110.191C450.941 118.372 461.648 104.982 471.909 111.994C482.616 119.006 492.877 121.344 503.584 111.994C513.845 102.645 524.553 106.685 534.814 96.1666C545.521 85.6484 555.782 85.6484 561.135 85.6484H566.489V148.757H561.135C555.782 148.757 545.521 148.757 534.814 148.757C524.553 148.757 513.845 148.757 503.584 148.757C492.877 148.757 482.616 148.757 471.909 148.757C461.648 148.757 450.941 148.757 440.68 148.757C429.973 148.757 419.712 148.757 409.005 148.757C398.744 148.757 388.037 148.757 377.33 148.757C367.069 148.757 356.362 148.757 346.101 148.757C335.393 148.757 325.133 148.757 314.425 148.757C304.164 148.757 293.457 148.757 283.196 148.757C272.489 148.757 262.228 148.757 251.521 148.757C241.26 148.757 230.553 148.757 220.292 148.757C209.585 148.757 198.878 148.757 188.617 148.757C177.91 148.757 167.649 148.757 156.941 148.757C146.68 148.757 135.973 148.757 125.712 148.757C115.005 148.757 104.744 148.757 94.0371 148.757C83.7761 148.757 73.069 148.757 62.808 148.757C52.1009 148.757 41.8399 148.757 36.4864 148.757H31.1328V119.044Z" fill="url(#paint0_linear_546_2770)" fill-opacity="0.1"/>
<path d="M31.1309 118.758L33.3628 118.004C38.1545 116.507 52.099 113.769 62.8061 116.113C73.0671 118.456 83.7742 130.173 94.0352 133.688C104.742 137.203 115.003 132.517 125.71 130.173C135.971 127.83 146.679 127.83 156.94 121.971C167.647 116.113 177.908 104.396 188.615 103.224C198.876 102.052 209.583 111.426 220.29 114.941C230.551 118.456 241.258 116.113 251.519 113.769C262.226 111.426 272.487 109.082 283.194 112.598C293.455 116.113 304.162 125.486 314.423 126.658C325.131 127.83 335.392 120.8 346.099 113.769C356.36 106.739 367.067 99.7089 377.328 96.1938C388.035 92.6787 398.742 92.6787 409.003 95.0221C419.71 97.3655 429.971 102.052 440.678 110.254C450.939 118.456 461.646 105.032 471.907 112.062C482.614 119.092 492.875 121.436 503.583 112.062C513.844 102.689 524.551 106.739 534.812 96.1938C545.519 85.6484 555.78 85.6484 561.133 85.6484H566.487" stroke="#FF9F9F" stroke-width="4" stroke-linecap="round" stroke-linejoin="round"/>
<path d="M40.2156 224.826V218.446L38.9726 218.732V217.874L40.6776 217.126H41.4256V224.826H40.2156ZM45.674 224.958C45.1313 224.958 44.662 224.863 44.266 224.672C43.87 224.474 43.5547 224.207 43.32 223.869C43.0927 223.525 42.9533 223.136 42.902 222.703H44.046C44.1193 223.07 44.3027 223.374 44.596 223.616C44.8893 223.851 45.2523 223.968 45.685 223.968C46.0077 223.968 46.2863 223.891 46.521 223.737C46.7557 223.576 46.939 223.363 47.071 223.099C47.203 222.835 47.269 222.538 47.269 222.208C47.269 221.688 47.1223 221.273 46.829 220.965C46.5357 220.65 46.1653 220.492 45.718 220.492C45.3367 220.492 45.0103 220.584 44.739 220.767C44.4677 220.943 44.2697 221.167 44.145 221.438H43.034L43.694 217.126H47.852V218.149H44.574L44.178 220.206C44.3467 220.016 44.5777 219.858 44.871 219.733C45.1717 219.601 45.509 219.535 45.883 219.535C46.4037 219.535 46.851 219.656 47.225 219.898C47.599 220.133 47.885 220.452 48.083 220.855C48.2883 221.259 48.391 221.706 48.391 222.197C48.391 222.711 48.281 223.176 48.061 223.594C47.841 224.012 47.5257 224.346 47.115 224.595C46.7117 224.837 46.2313 224.958 45.674 224.958ZM50.1863 224.892C49.9663 224.892 49.783 224.823 49.6363 224.683C49.497 224.537 49.4273 224.364 49.4273 224.166C49.4273 223.961 49.497 223.789 49.6363 223.649C49.783 223.503 49.9663 223.429 50.1863 223.429C50.4063 223.429 50.586 223.503 50.7253 223.649C50.8646 223.789 50.9343 223.961 50.9343 224.166C50.9343 224.364 50.8646 224.537 50.7253 224.683C50.586 224.823 50.4063 224.892 50.1863 224.892ZM52.6443 224.826V218.446L51.4013 218.732V217.874L53.1063 217.126H53.8543V224.826H52.6443ZM55.2647 224.826V223.99C55.7634 223.594 56.24 223.195 56.6947 222.791C57.1494 222.388 57.5527 221.992 57.9047 221.603C58.264 221.207 58.5464 220.822 58.7517 220.448C58.957 220.067 59.0597 219.7 59.0597 219.348C59.0597 219.114 59.0194 218.894 58.9387 218.688C58.858 218.476 58.726 218.307 58.5427 218.182C58.3594 218.05 58.1137 217.984 57.8057 217.984C57.3437 217.984 56.9954 218.131 56.7607 218.424C56.5334 218.718 56.4234 219.07 56.4307 219.48H55.2977C55.305 218.938 55.4187 218.483 55.6387 218.116C55.866 217.75 56.1667 217.471 56.5407 217.28C56.922 217.09 57.351 216.994 57.8277 216.994C58.5537 216.994 59.133 217.2 59.5657 217.61C60.0057 218.014 60.2257 218.578 60.2257 219.304C60.2257 219.737 60.1194 220.166 59.9067 220.591C59.7014 221.017 59.43 221.427 59.0927 221.823C58.7627 222.212 58.407 222.579 58.0257 222.923C57.6444 223.268 57.2814 223.58 56.9367 223.858H60.4567V224.826H55.2647Z" fill="#09101D"/>
<path d="M122.108 224.826V218.446L120.865 218.732V217.874L122.57 217.126H123.318V224.826H122.108ZM127.71 224.958C127.145 224.958 126.668 224.852 126.28 224.639C125.891 224.427 125.576 224.144 125.334 223.792C125.099 223.44 124.93 223.044 124.828 222.604C124.725 222.164 124.674 221.713 124.674 221.251C124.674 220.401 124.791 219.656 125.026 219.018C125.268 218.38 125.612 217.885 126.06 217.533C126.507 217.174 127.05 216.994 127.688 216.994C128.194 216.994 128.626 217.093 128.986 217.291C129.345 217.489 129.624 217.753 129.822 218.083C130.027 218.413 130.152 218.773 130.196 219.161H129.107C129.041 218.78 128.883 218.487 128.634 218.281C128.384 218.076 128.065 217.973 127.677 217.973C127.141 217.973 126.698 218.226 126.346 218.732C126.001 219.231 125.818 220.001 125.796 221.042C125.972 220.72 126.243 220.445 126.61 220.217C126.984 219.99 127.413 219.876 127.897 219.876C128.329 219.876 128.733 219.979 129.107 220.184C129.488 220.39 129.796 220.679 130.031 221.053C130.273 221.42 130.394 221.856 130.394 222.362C130.394 222.81 130.284 223.231 130.064 223.627C129.844 224.023 129.532 224.346 129.129 224.595C128.733 224.837 128.26 224.958 127.71 224.958ZM127.644 223.946C127.952 223.946 128.227 223.88 128.469 223.748C128.711 223.616 128.901 223.437 129.041 223.209C129.18 222.975 129.25 222.711 129.25 222.417C129.25 221.948 129.096 221.574 128.788 221.295C128.487 221.017 128.102 220.877 127.633 220.877C127.325 220.877 127.046 220.947 126.797 221.086C126.555 221.226 126.364 221.413 126.225 221.647C126.085 221.875 126.016 222.128 126.016 222.406C126.016 222.707 126.085 222.975 126.225 223.209C126.371 223.437 126.566 223.616 126.808 223.748C127.057 223.88 127.336 223.946 127.644 223.946ZM131.853 224.892C131.633 224.892 131.45 224.823 131.303 224.683C131.164 224.537 131.094 224.364 131.094 224.166C131.094 223.961 131.164 223.789 131.303 223.649C131.45 223.503 131.633 223.429 131.853 223.429C132.073 223.429 132.253 223.503 132.392 223.649C132.532 223.789 132.601 223.961 132.601 224.166C132.601 224.364 132.532 224.537 132.392 224.683C132.253 224.823 132.073 224.892 131.853 224.892ZM134.311 224.826V218.446L133.068 218.732V217.874L134.773 217.126H135.521V224.826H134.311ZM136.932 224.826V223.99C137.43 223.594 137.907 223.195 138.362 222.791C138.816 222.388 139.22 221.992 139.572 221.603C139.931 221.207 140.213 220.822 140.419 220.448C140.624 220.067 140.727 219.7 140.727 219.348C140.727 219.114 140.686 218.894 140.606 218.688C140.525 218.476 140.393 218.307 140.21 218.182C140.026 218.05 139.781 217.984 139.473 217.984C139.011 217.984 138.662 218.131 138.428 218.424C138.2 218.718 138.09 219.07 138.098 219.48H136.965C136.972 218.938 137.086 218.483 137.306 218.116C137.533 217.75 137.834 217.471 138.208 217.28C138.589 217.09 139.018 216.994 139.495 216.994C140.221 216.994 140.8 217.2 141.233 217.61C141.673 218.014 141.893 218.578 141.893 219.304C141.893 219.737 141.786 220.166 141.574 220.591C141.368 221.017 141.097 221.427 140.76 221.823C140.43 222.212 140.074 222.579 139.693 222.923C139.311 223.268 138.948 223.58 138.604 223.858H142.124V224.826H136.932Z" fill="#09101D"/>
<path d="M204.001 224.826V218.446L202.758 218.732V217.874L204.463 217.126H205.211V224.826H204.001ZM207.314 224.826L210.295 218.127H206.291V217.126H211.494V217.973L208.535 224.826H207.314ZM212.414 224.892C212.194 224.892 212.011 224.823 211.864 224.683C211.725 224.537 211.655 224.364 211.655 224.166C211.655 223.961 211.725 223.789 211.864 223.649C212.011 223.503 212.194 223.429 212.414 223.429C212.634 223.429 212.814 223.503 212.953 223.649C213.092 223.789 213.162 223.961 213.162 224.166C213.162 224.364 213.092 224.537 212.953 224.683C212.814 224.823 212.634 224.892 212.414 224.892ZM214.872 224.826V218.446L213.629 218.732V217.874L215.334 217.126H216.082V224.826H214.872ZM217.492 224.826V223.99C217.991 223.594 218.468 223.195 218.922 222.791C219.377 222.388 219.78 221.992 220.132 221.603C220.492 221.207 220.774 220.822 220.979 220.448C221.185 220.067 221.287 219.7 221.287 219.348C221.287 219.114 221.247 218.894 221.166 218.688C221.086 218.476 220.954 218.307 220.77 218.182C220.587 218.05 220.341 217.984 220.033 217.984C219.571 217.984 219.223 218.131 218.988 218.424C218.761 218.718 218.651 219.07 218.658 219.48H217.525C217.533 218.938 217.646 218.483 217.866 218.116C218.094 217.75 218.394 217.471 218.768 217.28C219.15 217.09 219.579 216.994 220.055 216.994C220.781 216.994 221.361 217.2 221.793 217.61C222.233 218.014 222.453 218.578 222.453 219.304C222.453 219.737 222.347 220.166 222.134 220.591C221.929 221.017 221.658 221.427 221.32 221.823C220.99 222.212 220.635 222.579 220.253 222.923C219.872 223.268 219.509 223.58 219.164 223.858H222.684V224.826H217.492Z" fill="#09101D"/>
<rect width="35" height="24" transform="translate(276.322 209.326)" fill="white"/>
<rect x="276.322" y="209.326" width="35" height="24" rx="11" fill="white"/>
<path d="M283.895 224.826V218.446L282.652 218.732V217.874L284.357 217.126H285.105V224.826H283.895ZM289.299 224.958C288.785 224.958 288.32 224.867 287.902 224.683C287.491 224.493 287.161 224.229 286.912 223.891C286.67 223.554 286.549 223.158 286.549 222.703C286.549 222.241 286.677 221.827 286.934 221.46C287.198 221.094 287.546 220.844 287.979 220.712C287.59 220.558 287.289 220.335 287.077 220.041C286.864 219.741 286.758 219.411 286.758 219.051C286.758 218.677 286.857 218.336 287.055 218.028C287.253 217.713 287.539 217.464 287.913 217.28C288.294 217.09 288.756 216.994 289.299 216.994C289.841 216.994 290.3 217.09 290.674 217.28C291.055 217.464 291.345 217.713 291.543 218.028C291.741 218.336 291.84 218.677 291.84 219.051C291.84 219.403 291.73 219.733 291.51 220.041C291.297 220.342 290.996 220.566 290.608 220.712C291.04 220.852 291.385 221.105 291.642 221.471C291.906 221.831 292.038 222.241 292.038 222.703C292.038 223.158 291.917 223.554 291.675 223.891C291.433 224.229 291.103 224.493 290.685 224.683C290.274 224.867 289.812 224.958 289.299 224.958ZM289.299 220.338C289.724 220.338 290.058 220.228 290.3 220.008C290.549 219.788 290.674 219.506 290.674 219.161C290.674 218.773 290.553 218.476 290.311 218.27C290.069 218.065 289.731 217.962 289.299 217.962C288.866 217.962 288.529 218.065 288.287 218.27C288.045 218.476 287.924 218.773 287.924 219.161C287.924 219.506 288.045 219.788 288.287 220.008C288.529 220.228 288.866 220.338 289.299 220.338ZM289.299 223.968C289.827 223.968 290.223 223.844 290.487 223.594C290.751 223.338 290.883 223.011 290.883 222.615C290.883 222.175 290.74 221.838 290.454 221.603C290.175 221.361 289.79 221.24 289.299 221.24C288.807 221.24 288.419 221.361 288.133 221.603C287.847 221.838 287.704 222.175 287.704 222.615C287.704 223.011 287.836 223.338 288.1 223.594C288.371 223.844 288.771 223.968 289.299 223.968ZM293.909 224.892C293.689 224.892 293.506 224.823 293.359 224.683C293.22 224.537 293.15 224.364 293.15 224.166C293.15 223.961 293.22 223.789 293.359 223.649C293.506 223.503 293.689 223.429 293.909 223.429C294.129 223.429 294.309 223.503 294.448 223.649C294.587 223.789 294.657 223.961 294.657 224.166C294.657 224.364 294.587 224.537 294.448 224.683C294.309 224.823 294.129 224.892 293.909 224.892ZM296.367 224.826V218.446L295.124 218.732V217.874L296.829 217.126H297.577V224.826H296.367ZM298.987 224.826V223.99C299.486 223.594 299.963 223.195 300.417 222.791C300.872 222.388 301.275 221.992 301.627 221.603C301.987 221.207 302.269 220.822 302.474 220.448C302.68 220.067 302.782 219.7 302.782 219.348C302.782 219.114 302.742 218.894 302.661 218.688C302.581 218.476 302.449 218.307 302.265 218.182C302.082 218.05 301.836 217.984 301.528 217.984C301.066 217.984 300.718 218.131 300.483 218.424C300.256 218.718 300.146 219.07 300.153 219.48H299.02C299.028 218.938 299.141 218.483 299.361 218.116C299.589 217.75 299.889 217.471 300.263 217.28C300.645 217.09 301.074 216.994 301.55 216.994C302.276 216.994 302.856 217.2 303.288 217.61C303.728 218.014 303.948 218.578 303.948 219.304C303.948 219.737 303.842 220.166 303.629 220.591C303.424 221.017 303.153 221.427 302.815 221.823C302.485 222.212 302.13 222.579 301.748 222.923C301.367 223.268 301.004 223.58 300.659 223.858H304.179V224.826H298.987Z" fill="black"/>
<path d="M365.788 224.826V218.446L364.545 218.732V217.874L366.25 217.126H366.998V224.826H365.788ZM371.147 224.958C370.641 224.958 370.209 224.859 369.849 224.661C369.49 224.463 369.208 224.199 369.002 223.869C368.804 223.539 368.683 223.18 368.639 222.791H369.728C369.794 223.173 369.952 223.466 370.201 223.671C370.451 223.877 370.77 223.979 371.158 223.979C371.694 223.979 372.134 223.73 372.478 223.231C372.83 222.725 373.017 221.952 373.039 220.91C372.863 221.233 372.588 221.508 372.214 221.735C371.848 221.963 371.422 222.076 370.938 222.076C370.506 222.076 370.099 221.974 369.717 221.768C369.336 221.563 369.028 221.277 368.793 220.91C368.559 220.536 368.441 220.096 368.441 219.59C368.441 219.143 368.551 218.721 368.771 218.325C368.991 217.929 369.299 217.61 369.695 217.368C370.099 217.119 370.575 216.994 371.125 216.994C371.69 216.994 372.167 217.101 372.555 217.313C372.944 217.526 373.256 217.808 373.49 218.16C373.725 218.512 373.894 218.908 373.996 219.348C374.106 219.788 374.161 220.239 374.161 220.701C374.161 221.552 374.04 222.296 373.798 222.934C373.564 223.572 373.223 224.071 372.775 224.43C372.328 224.782 371.785 224.958 371.147 224.958ZM371.202 221.075C371.51 221.075 371.785 221.006 372.027 220.866C372.269 220.727 372.46 220.544 372.599 220.316C372.746 220.082 372.819 219.825 372.819 219.546C372.819 219.246 372.746 218.982 372.599 218.754C372.46 218.52 372.266 218.336 372.016 218.204C371.774 218.072 371.499 218.006 371.191 218.006C370.883 218.006 370.608 218.072 370.366 218.204C370.124 218.336 369.93 218.52 369.783 218.754C369.644 218.982 369.574 219.242 369.574 219.535C369.574 220.005 369.728 220.379 370.036 220.657C370.344 220.936 370.733 221.075 371.202 221.075ZM375.597 224.892C375.377 224.892 375.194 224.823 375.047 224.683C374.908 224.537 374.838 224.364 374.838 224.166C374.838 223.961 374.908 223.789 375.047 223.649C375.194 223.503 375.377 223.429 375.597 223.429C375.817 223.429 375.997 223.503 376.136 223.649C376.276 223.789 376.345 223.961 376.345 224.166C376.345 224.364 376.276 224.537 376.136 224.683C375.997 224.823 375.817 224.892 375.597 224.892ZM378.055 224.826V218.446L376.812 218.732V217.874L378.517 217.126H379.265V224.826H378.055ZM380.676 224.826V223.99C381.174 223.594 381.651 223.195 382.106 222.791C382.56 222.388 382.964 221.992 383.316 221.603C383.675 221.207 383.957 220.822 384.163 220.448C384.368 220.067 384.471 219.7 384.471 219.348C384.471 219.114 384.43 218.894 384.35 218.688C384.269 218.476 384.137 218.307 383.954 218.182C383.77 218.05 383.525 217.984 383.217 217.984C382.755 217.984 382.406 218.131 382.172 218.424C381.944 218.718 381.834 219.07 381.842 219.48H380.709C380.716 218.938 380.83 218.483 381.05 218.116C381.277 217.75 381.578 217.471 381.952 217.28C382.333 217.09 382.762 216.994 383.239 216.994C383.965 216.994 384.544 217.2 384.977 217.61C385.417 218.014 385.637 218.578 385.637 219.304C385.637 219.737 385.53 220.166 385.318 220.591C385.112 221.017 384.841 221.427 384.504 221.823C384.174 222.212 383.818 222.579 383.437 222.923C383.055 223.268 382.692 223.58 382.348 223.858H385.868V224.826H380.676Z" fill="#09101D"/>
<path d="M446.734 224.826V223.99C447.233 223.594 447.71 223.195 448.164 222.791C448.619 222.388 449.022 221.992 449.374 221.603C449.734 221.207 450.016 220.822 450.221 220.448C450.427 220.067 450.529 219.7 450.529 219.348C450.529 219.114 450.489 218.894 450.408 218.688C450.328 218.476 450.196 218.307 450.012 218.182C449.829 218.05 449.583 217.984 449.275 217.984C448.813 217.984 448.465 218.131 448.23 218.424C448.003 218.718 447.893 219.07 447.9 219.48H446.767C446.775 218.938 446.888 218.483 447.108 218.116C447.336 217.75 447.636 217.471 448.01 217.28C448.392 217.09 448.821 216.994 449.297 216.994C450.023 216.994 450.603 217.2 451.035 217.61C451.475 218.014 451.695 218.578 451.695 219.304C451.695 219.737 451.589 220.166 451.376 220.591C451.171 221.017 450.9 221.427 450.562 221.823C450.232 222.212 449.877 222.579 449.495 222.923C449.114 223.268 448.751 223.58 448.406 223.858H451.926V224.826H446.734ZM456.177 224.958C455.481 224.958 454.879 224.793 454.373 224.463C453.875 224.126 453.49 223.66 453.218 223.066C452.954 222.465 452.822 221.768 452.822 220.976C452.822 220.184 452.954 219.491 453.218 218.897C453.49 218.296 453.875 217.83 454.373 217.5C454.879 217.163 455.481 216.994 456.177 216.994C456.874 216.994 457.472 217.163 457.97 217.5C458.469 217.83 458.85 218.296 459.114 218.897C459.386 219.491 459.521 220.184 459.521 220.976C459.521 221.768 459.386 222.465 459.114 223.066C458.85 223.66 458.469 224.126 457.97 224.463C457.472 224.793 456.874 224.958 456.177 224.958ZM456.177 223.913C456.595 223.913 456.966 223.796 457.288 223.561C457.618 223.327 457.875 222.989 458.058 222.549C458.242 222.109 458.333 221.585 458.333 220.976C458.333 220.368 458.242 219.843 458.058 219.403C457.875 218.963 457.618 218.626 457.288 218.391C456.966 218.157 456.595 218.039 456.177 218.039C455.752 218.039 455.378 218.157 455.055 218.391C454.733 218.626 454.48 218.963 454.296 219.403C454.113 219.843 454.021 220.368 454.021 220.976C454.021 221.585 454.113 222.109 454.296 222.549C454.48 222.989 454.733 223.327 455.055 223.561C455.378 223.796 455.752 223.913 456.177 223.913ZM460.799 224.892C460.579 224.892 460.395 224.823 460.249 224.683C460.109 224.537 460.04 224.364 460.04 224.166C460.04 223.961 460.109 223.789 460.249 223.649C460.395 223.503 460.579 223.429 460.799 223.429C461.019 223.429 461.198 223.503 461.338 223.649C461.477 223.789 461.547 223.961 461.547 224.166C461.547 224.364 461.477 224.537 461.338 224.683C461.198 224.823 461.019 224.892 460.799 224.892ZM463.257 224.826V218.446L462.014 218.732V217.874L463.719 217.126H464.467V224.826H463.257ZM465.877 224.826V223.99C466.376 223.594 466.852 223.195 467.307 222.791C467.762 222.388 468.165 221.992 468.517 221.603C468.876 221.207 469.159 220.822 469.364 220.448C469.569 220.067 469.672 219.7 469.672 219.348C469.672 219.114 469.632 218.894 469.551 218.688C469.47 218.476 469.338 218.307 469.155 218.182C468.972 218.05 468.726 217.984 468.418 217.984C467.956 217.984 467.608 218.131 467.373 218.424C467.146 218.718 467.036 219.07 467.043 219.48H465.91C465.917 218.938 466.031 218.483 466.251 218.116C466.478 217.75 466.779 217.471 467.153 217.28C467.534 217.09 467.963 216.994 468.44 216.994C469.166 216.994 469.745 217.2 470.178 217.61C470.618 218.014 470.838 218.578 470.838 219.304C470.838 219.737 470.732 220.166 470.519 220.591C470.314 221.017 470.042 221.427 469.705 221.823C469.375 222.212 469.019 222.579 468.638 222.923C468.257 223.268 467.894 223.58 467.549 223.858H471.069V224.826H465.877Z" fill="#09101D"/>
<path d="M534.025 224.826C533.49 224.826 533.064 224.698 532.749 224.441C532.434 224.177 532.276 223.712 532.276 223.044V220.349H531.341V219.37H532.276L532.419 217.984H533.442V219.37H534.982V220.349H533.442V223.044C533.442 223.345 533.504 223.554 533.629 223.671C533.761 223.781 533.985 223.836 534.3 223.836H534.927V224.826H534.025ZM538.597 224.958C538.076 224.958 537.607 224.841 537.189 224.606C536.778 224.364 536.452 224.031 536.21 223.605C535.968 223.173 535.847 222.67 535.847 222.098C535.847 221.526 535.968 221.028 536.21 220.602C536.459 220.17 536.793 219.836 537.211 219.601C537.629 219.359 538.094 219.238 538.608 219.238C539.128 219.238 539.594 219.359 540.005 219.601C540.423 219.836 540.753 220.17 540.995 220.602C541.244 221.028 541.369 221.526 541.369 222.098C541.369 222.67 541.244 223.173 540.995 223.605C540.753 224.031 540.423 224.364 540.005 224.606C539.587 224.841 539.117 224.958 538.597 224.958ZM538.597 223.957C538.875 223.957 539.132 223.888 539.367 223.748C539.609 223.609 539.803 223.404 539.95 223.132C540.096 222.854 540.17 222.509 540.17 222.098C540.17 221.688 540.096 221.347 539.95 221.075C539.81 220.797 539.62 220.588 539.378 220.448C539.143 220.309 538.886 220.239 538.608 220.239C538.329 220.239 538.069 220.309 537.827 220.448C537.592 220.588 537.401 220.797 537.255 221.075C537.108 221.347 537.035 221.688 537.035 222.098C537.035 222.509 537.108 222.854 537.255 223.132C537.401 223.404 537.592 223.609 537.827 223.748C538.061 223.888 538.318 223.957 538.597 223.957ZM545.116 224.958C544.588 224.958 544.122 224.834 543.719 224.584C543.315 224.335 543 223.994 542.773 223.561C542.545 223.129 542.432 222.637 542.432 222.087C542.432 221.537 542.545 221.05 542.773 220.624C543 220.192 543.315 219.854 543.719 219.612C544.129 219.363 544.599 219.238 545.127 219.238C545.559 219.238 545.937 219.323 546.26 219.491C546.59 219.66 546.846 219.898 547.03 220.206V216.906H548.196V224.826H547.151L547.03 223.979C546.854 224.236 546.612 224.463 546.304 224.661C545.996 224.859 545.6 224.958 545.116 224.958ZM545.325 223.946C545.823 223.946 546.23 223.774 546.546 223.429C546.868 223.085 547.03 222.641 547.03 222.098C547.03 221.548 546.868 221.105 546.546 220.767C546.23 220.423 545.823 220.25 545.325 220.25C544.826 220.25 544.415 220.423 544.093 220.767C543.77 221.105 543.609 221.548 543.609 222.098C543.609 222.458 543.682 222.777 543.829 223.055C543.975 223.334 544.177 223.554 544.434 223.715C544.698 223.869 544.995 223.946 545.325 223.946ZM551.514 224.958C551.052 224.958 550.67 224.881 550.37 224.727C550.069 224.573 549.845 224.372 549.699 224.122C549.552 223.866 549.479 223.587 549.479 223.286C549.479 222.758 549.684 222.34 550.095 222.032C550.505 221.724 551.092 221.57 551.855 221.57H553.285V221.471C553.285 221.046 553.167 220.727 552.933 220.514C552.705 220.302 552.408 220.195 552.042 220.195C551.719 220.195 551.437 220.276 551.195 220.437C550.96 220.591 550.817 220.822 550.766 221.13H549.6C549.636 220.734 549.768 220.397 549.996 220.118C550.23 219.832 550.524 219.616 550.876 219.469C551.235 219.315 551.627 219.238 552.053 219.238C552.815 219.238 553.406 219.44 553.824 219.843C554.242 220.239 554.451 220.782 554.451 221.471V224.826H553.439L553.34 223.891C553.186 224.192 552.962 224.445 552.669 224.65C552.375 224.856 551.99 224.958 551.514 224.958ZM551.745 224.012C552.06 224.012 552.324 223.939 552.537 223.792C552.757 223.638 552.925 223.437 553.043 223.187C553.167 222.938 553.244 222.663 553.274 222.362H551.976C551.514 222.362 551.184 222.443 550.986 222.604C550.795 222.766 550.7 222.967 550.7 223.209C550.7 223.459 550.791 223.657 550.975 223.803C551.165 223.943 551.422 224.012 551.745 224.012ZM556.276 227.246L557.585 224.375H557.266L555.11 219.37H556.375L558.047 223.407L559.796 219.37H561.028L557.508 227.246H556.276Z" fill="#09101D"/>
<defs>
<linearGradient id="paint0_linear_546_2770" x1="298.811" y1="85.6484" x2="298.811" y2="148.757" gradientUnits="userSpaceOnUse">
<stop stop-color="#DB4F4F"/>
<stop offset="1" stop-color="#0B24FB" stop-opacity="0"/>
</linearGradient>
</defs>
</svg>
