<svg width="24" height="24" viewBox="0 0 24 24" fill="none" xmlns="http://www.w3.org/2000/svg">
<path fill-rule="evenodd" clip-rule="evenodd" d="M17.8945 3C17.3359 3 16.8001 3.22191 16.4051 3.61692L4.09161 15.9304C4.02753 15.9945 3.98207 16.0748 3.9601 16.1627L3.20288 19.1915C3.11134 19.5577 3.44303 19.8894 3.80922 19.7979L6.83807 19.0407C6.92599 19.0187 7.00628 18.9732 7.07036 18.9092L19.3839 6.59566C19.5794 6.40007 19.7346 6.16788 19.8404 5.91233C19.9463 5.65678 20.0008 5.38289 20.0008 5.10629C20.0008 4.82969 19.9463 4.55579 19.8404 4.30025C19.7346 4.0447 19.5794 3.8125 19.3839 3.61692C19.1883 3.42133 18.9561 3.26618 18.7005 3.16033C18.445 3.05448 18.1711 3 17.8945 3ZM12.0008 19C11.4485 19 11.0008 19.4477 11.0008 20C11.0008 20.5523 11.4485 21 12.0008 21H21.0008C21.5531 21 22.0008 20.5523 22.0008 20C22.0008 19.4477 21.5531 19 21.0008 19H12.0008Z" fill="#ACACAC"/>
</svg>
