<svg width="41" height="41" viewBox="0 0 41 41" fill="none" xmlns="http://www.w3.org/2000/svg">
<path fill-rule="evenodd" clip-rule="evenodd" d="M20.4993 0.791992C9.61474 0.791992 0.791016 9.61571 0.791016 20.5003C0.791016 31.3849 9.61474 40.2087 20.4993 40.2087C31.384 40.2087 40.2077 31.3849 40.2077 20.5003C40.2077 9.61571 31.384 0.791992 20.4993 0.791992ZM30.0764 15.744C30.4181 15.4023 30.4181 14.8483 30.0764 14.5066C29.7347 14.1649 29.1807 14.1649 28.839 14.5066L18.7077 24.6379L13.9514 19.8816C13.6097 19.5399 13.0557 19.5399 12.714 19.8816C12.3723 20.2233 12.3723 20.7773 12.714 21.119L18.089 26.494C18.4307 26.8358 18.9847 26.8358 19.3264 26.494L30.0764 15.744Z" fill="#498553"/>
</svg>
